<svg xmlns="http://www.w3.org/2000/svg" xmlns:xlink="http://www.w3.org/1999/xlink" width="230" height="230" viewBox="0 0 230 230"><defs><path id="a" d="M219.677,0 C225.282,0 229.845601,4.46631639 229.996164,10.0349172 L230,10.319 L230,149.9 C230,155.505983 225.530783,160.0667 219.961134,160.217166 L219.677,160.221 L160.219,160.221 L160.219,219.679 C160.218017,225.284 155.750717,229.845667 150.182084,229.996166 L149.898,230 L10.321,230 C5.001,230 0.620928889,225.974596 0.0605638519,220.803564 L0.0605638519,78.9752619 C0.61092237,73.8958856 4.84578691,69.9230991 10.0369156,69.7828336 L10.321,69.779 L69.779,69.779 L69.779,10.321 C69.7799833,4.716 74.24825,0.154333056 79.8159647,0.00383443519 L80.1,0 L219.677,0 Z M140,160 L84.456,160 L35,209 L139.998,209 L140,160 Z M21,90 L21,195 L70,145.544 L70,90.004 L21,90 Z M140,91 L91,91 L91,140 L140,140 L140,91 Z M209,35 L160,84.458 L160,140 L209,139.996 L209,35 Z M195,21 L90,21 L90,70 L145.537,70 L195,21 Z"/></defs><use xlink:href="#a" fill-rule="evenodd"/></svg>