<?xml version="1.0" standalone="no"?>
<!DOCTYPE svg PUBLIC "-//W3C//DTD SVG 1.1//EN" "http://www.w3.org/Graphics/SVG/1.1/DTD/svg11.dtd" >
<svg xmlns="http://www.w3.org/2000/svg">
<metadata>Generated by IcoMoon</metadata>
<defs>
<font id="icomoon" horiz-adv-x="1024">
<font-face units-per-em="1024" ascent="960" descent="-64" />
<missing-glyph horiz-adv-x="1024" />
<glyph unicode="&#x20;" horiz-adv-x="512" d="" />
<glyph unicode="&#xe900;" glyph-name="Archive" d="M928 960c49.629 0 90.579-43.254 95.503-98.512l0.497-11.202v-146.286c0-17.969-11.308-32.889-26.244-35.983l-5.756-0.589h-32v-694.857c0-17.969-11.308-32.889-26.244-35.983l-5.756-0.589h-832c-15.723 0-28.778 12.924-31.485 29.993l-0.515 6.578v694.857h-32c-15.723 0-28.778 12.924-31.485 29.993l-0.515 6.578v146.286c0 56.719 37.847 103.518 86.198 109.147l9.802 0.567h832zM877.714 618.667h-731.429v-597.333h731.429v597.333zM585.143 533.333c40.334 0 73.143-32.809 73.143-73.143 0-37.813-28.836-69.012-65.675-72.765l-7.468-0.378h-146.286c-40.334 0-73.143 32.809-73.143 73.143 0 37.813 28.836 69.012 65.675 72.765l7.468 0.378h146.286zM928 886.857h-832c-15.694 0-28.772-12.953-31.484-30.003l-0.516-6.569v-109.714h896v109.714c0 17.936-11.334 32.882-26.252 35.982l-5.748 0.59z" />
<glyph unicode="&#xe901;" glyph-name="Current" horiz-adv-x="878" d="M822.108 551.153l-677.065 393.084c-71.82 41.825-145.042-3.917-145.042-86.171v-820.602c0-69.686 44.474-101.464 85.81-101.464 19.466 0 39.299 6.267 58.999 18.494l680.104 424.657c34.19 21.424 53.389 53.133 52.788 87.023-0.568 33.924-20.801 64.918-55.593 84.979zM779.336 455.003l-680.070-424.555c-4.574-2.861-8.18-4.292-10.651-5.007-0.668 2.52-1.336 6.403-1.336 12.023v820.568c0 8.447 1.503 12.704 1.503 13.76 2.671-0.17 7.346-1.567 13.222-4.973l676.965-393.084c8.347-4.871 10.818-9.094 11.619-8.174-0.434-1.158-3.272-5.484-11.252-10.559z" />
<glyph unicode="&#xe902;" glyph-name="select-all-line" d="M0 846.19h113.81v113.81c-62.61 0-113.81-51.2-113.81-113.81zM0 391.095h113.81v113.81h-113.81v-113.81zM227.547-64h113.81v113.81h-113.883v-113.81zM0 618.642h113.81v113.883h-113.81v-113.81zM568.905 960h-113.81v-113.81h113.81v113.81zM910.19 960v-113.81h113.81c0 62.61-51.2 113.81-113.81 113.81zM113.81-64v113.81h-113.81c0-62.61 51.2-113.81 113.81-113.81zM0 163.547h113.81v113.81h-113.81v-113.81zM341.358 960h-113.883v-113.81h113.81v113.81zM455.095-64h113.81v113.81h-113.81v-113.81zM910.19 391.095h113.81v113.81h-113.81v-113.81zM910.19-64c62.61 0 113.81 51.2 113.81 113.81h-113.81v-113.81zM910.19 618.642h113.81v113.883h-113.81v-113.81zM910.19 163.547h113.81v113.81h-113.81v-113.81zM682.715-64h113.737v113.81h-113.81v-113.81zM682.715 846.19h113.737v113.81h-113.81v-113.81zM227.474 163.547h568.905v568.978h-568.905v-568.905zM341.285 618.642h341.285v-341.285h-341.211v341.285z" />
<glyph unicode="&#xe903;" glyph-name="Templates" d="M188 960c73.52 0 133.986-56.965 139.578-129.075l0.422-10.925v-744c0-73.52-56.965-133.986-129.075-139.578l-10.925-0.422h-48c-73.52 0-133.986 56.965-139.578 129.075l-0.422 10.925v744c0 73.52 56.965 133.986 129.075 139.578l10.925 0.422h48zM884 546c73.52 0 133.986-56.965 139.578-129.075l0.422-10.925v-130c0-22.092-17.908-40-40-40-19.883 0-36.377 14.505-39.476 33.512l-0.524 6.488v130c0 30.539-22.934 55.823-52.484 59.532l-7.516 0.468h-332c-30.539 0-55.823-22.934-59.532-52.484l-0.468-7.516v-330c0-30.539 22.934-55.823 52.484-59.532l7.516-0.468h332c30.539 0 55.823 22.934 59.532 52.484l0.468 7.516c0 22.092 17.908 40 40 40s40-17.908 40-40c0-73.52-56.965-133.986-129.075-139.578l-10.925-0.422h-332c-73.52 0-133.986 56.965-139.578 129.075l-0.422 10.925v330c0 73.52 56.965 133.986 129.075 139.578l10.925 0.422h332zM188 880h-48c-30.539 0-55.823-22.934-59.532-52.484l-0.468-7.516v-744c0-30.539 22.934-55.823 52.484-59.532l7.516-0.468h48c30.539 0 55.823 22.934 59.532 52.484l0.468 7.516v744c0 30.539-22.934 55.823-52.484 59.532l-7.516 0.468zM884 960c73.52 0 133.986-56.965 139.578-129.075l0.422-10.925v-48c0-73.52-56.965-133.986-129.075-139.578l-10.925-0.422h-332c-73.52 0-133.986 56.965-139.578 129.075l-0.422 10.925v48c0 73.52 56.965 133.986 129.075 139.578l10.925 0.422h332zM884 880h-332c-30.539 0-55.823-22.934-59.532-52.484l-0.468-7.516v-48c0-30.539 22.934-55.823 52.484-59.532l7.516-0.468h332c30.539 0 55.823 22.934 59.532 52.484l0.468 7.516v48c0 30.539-22.934 55.823-52.484 59.532l-7.516 0.468z" />
<glyph unicode="&#xe904;" glyph-name="logo-webinar" horiz-adv-x="1946" d="M286.72 358.758c80.384 0 126.848-59.827 126.848-154.368 0-94.592-46.592-154.445-127.002-154.445-32.845 0-64.461 12.646-88.371 35.302v-129.28c0-12.646-7.347-19.968-19.789-19.968h-27.008c-12.544 0-19.814 7.424-19.814 19.968v375.91c0 12.646 7.322 19.968 19.814 19.968h27.162c12.57 0 19.814-7.424 19.814-19.968v-8.448c23.91 22.656 55.501 35.277 88.346 35.328zM1374.72 358.758c38.042 0 73.856-10.88 101.734-32.614 11.341-8.448 10.214-18.867-0.589-28.006l-12.902-10.88c-8.627-7.629-17.254-7.475-26.368-1.562l-1.459 0.973c-16.077 11.136-35.123 17.152-54.63 17.178-27.878 0-42.035-8.448-42.035-25.754v-1.024l0.128-1.971c0.512-5.786 2.688-10.752 7.987-15.488l1.894-1.562c3.328-2.611 7.706-5.171 13.338-7.834l3.533-1.587 1.894-0.794 4.019-1.638 4.352-1.664 4.685-1.69 5.069-1.741 5.427-1.792 5.811-1.792 9.472-2.867c64.23-18.918 97.766-46.925 97.766-96.102 0-54.374-39.219-89.805-114.816-89.805-47.693 0-89.216 13.158-122.163 41.728-10.24 9.139-9.677 20.019 0.589 28.621l16.461 13.133c9.216 7.629 17.357 6.963 26.445-0.026l1.382-1.101c20.48-16.589 46.234-27.469 71.424-27.469 34.15 0 48.896 11.443 48.896 31.488 0 16.128-6.835 25.958-29.773 35.584l-4.198 1.715-4.557 1.69-2.432 0.87-5.094 1.715-2.688 0.87-5.658 1.766-6.042 1.792-3.174 0.896c-7.68 2.176-14.848 4.403-21.504 6.682l-6.502 2.304c-54.963 20.224-73.754 45.722-73.754 85.402 0.128 48.589 38.784 82.355 108.032 82.355zM1068.109 358.758c73.165 0 107.469-30.106 119.859-77.67l1.126-4.659c2.304-10.189 3.661-21.146 4.25-32.768l0.205-5.376 0.077-2.739 0.051-5.53v-154.419c0-12.698-7.373-20.019-19.84-20.019h-27.162c-5.376-0.512-10.726 1.434-14.566 5.299s-5.734 9.267-5.222 14.72v4.608c-20.941-20.608-52.070-31.488-86.067-31.488-63.949 0-110.336 40.038-110.336 96.666 0 55.757 44.928 95.386 107.315 96.64h3.021c31.104 0.845 61.517-9.267 86.067-28.57v28.032c0.077 37.376-15.795 62.029-66.714 62.029-19.891 0.256-39.475-4.864-56.781-14.72l-3.2-1.92c-10.214-6.298-19.251-6.298-27.75 2.304l-10.163 10.086c-9.626 9.728-9.626 20.557 1.664 28.595 30.95 20.48 67.2 31.232 104.192 30.874zM1682.97 358.758c83.354 0 140.39-64.64 140.39-156.723l0.051-3.405c0-12.698-7.808-19.456-20.147-19.456h-194.637c6.144-45.056 38.605-75.52 83.277-75.52 22.221-0.051 43.622 8.55 59.853 24.038 8.96 8.448 17.92 9.728 27.443 2.816l14.541-10.803c10.598-7.45 12.877-18.33 3.354-28.058-26.88-27.315-63.155-42.701-100.941-42.906h-3.686c-91.008 0-151.040 64.051-151.040 154.982 0 89.805 56.525 155.034 141.542 155.034zM752.486 358.758c83.354 0 140.416-64.64 140.416-156.723v-3.405c0-12.698-7.808-19.456-20.147-19.456h-194.714c6.17-45.184 38.605-75.52 83.379-75.52 21.197-0.026 41.677 7.782 57.6 21.965l2.278 2.048c8.934 8.474 17.92 9.728 27.418 2.867l14.515-10.829c10.65-7.45 12.877-18.33 3.354-28.058-26.88-27.315-63.13-42.701-100.915-42.906h-3.661c-91.034 0-151.066 64.051-151.066 154.982 0 89.805 56.474 155.034 141.542 155.034zM498.918 471.398h26.701c12.365 0 19.533-7.322 19.533-19.789v-373.606c0-12.544-7.245-19.789-19.533-19.789h-26.675c-5.325-0.512-10.573 1.408-14.336 5.222-3.763 3.84-5.632 9.19-5.146 14.592v373.555c-0.512 5.376 1.357 10.752 5.12 14.592 3.789 3.814 9.037 5.734 14.336 5.197zM1061.248 187.264h-3.174c-36.198 0-59.443-13.696-59.443-41.728 0-27.392 22.118-41.088 56.832-41.728l2.611-0.051c25.446-0.512 50.125 8.934 68.89 26.317h0.179v30.874c-18.099 16.589-41.523 25.933-65.894 26.317zM269.568 303.411c-26.982-0.333-52.659-11.622-71.194-31.309v-135.603c18.534-19.686 44.211-30.976 71.168-31.283 52.096 0 75.878 37.581 75.878 99.072 0 61.542-23.782 99.123-75.853 99.123zM1683.123 303.846c-41.523 0-68.915-27.443-75.085-73.216h148.941c-3.354 45.184-34.125 73.216-73.856 73.216zM752.614 303.846c-41.549 0-68.941-27.443-75.11-73.216h148.966c-3.354 45.184-34.15 73.216-73.856 73.216zM1889.126 433.894c22.81 0.051 43.418-13.67 52.147-34.739 8.755-21.069 3.942-45.312-12.186-61.44s-40.397-20.992-61.466-12.237c-21.094 8.704-34.816 29.286-34.816 52.096 0 31.104 25.216 56.32 56.32 56.32zM1870.003 424.806c-19.123-7.885-31.616-26.522-31.616-47.232-0.102-13.491 5.197-26.47 14.746-36.045 9.523-9.549 22.477-14.925 35.994-14.848v-0.179c20.71-0.154 39.45 12.186 47.488 31.283 8.013 19.072 3.738 41.114-10.854 55.808-14.592 14.669-36.608 19.098-55.757 11.213zM1888.87 409.958c14.925 0 24.397-6.861 24.397-18.842 0.256-8.397-5.504-15.795-13.696-17.587l14.669-24.781c1.203-1.997 0.256-3.738-2.202-3.738h-1.715c-1.536-0.051-3.021 0.794-3.738 2.202l-14.669 25.062h-17.587v-23.962c0.102-0.87-0.179-1.715-0.768-2.304-0.461-0.461-1.050-0.768-1.69-0.819h-2.483c-0.87-0.102-1.715 0.205-2.304 0.794-0.461 0.461-0.742 1.050-0.794 1.69v59.136c-0.102 0.87 0.179 1.715 0.768 2.304 0.461 0.486 1.050 0.768 1.69 0.845h20.122zM1888.358 403.251h-14.029v-24.371h14.029c11.981 0 16.973 4.506 16.973 12.186s-4.992 12.186-16.973 12.186zM794.24 956.877c2.355-2.33 3.482-5.606 3.072-8.858v-149.939c27.571 25.165 63.334 42.854 103.603 42.854 85.658 0 132.966-61.261 132.966-161.28 0-99.968-47.309-161.203-133.018-161.203-40.090 0-75.981 17.869-103.578 42.829v-23.782c0.384-3.251-0.742-6.502-3.072-8.832-2.304-2.33-5.606-3.456-8.883-3.072h-11.93c-3.302-0.41-6.579 0.717-8.934 3.072-2.33 2.304-3.456 5.581-3.072 8.832v410.522c-0.384 3.251 0.742 6.528 3.072 8.858 2.355 2.304 5.632 3.43 8.934 3.046h11.93c3.302 0.384 6.579-0.742 8.909-3.072zM10.445 828.467h16c6.221 0.256 11.725-4.045 13.030-10.214l79.36-254.285 76.442 254.285c1.203 5.76 6.093 9.933 11.827 10.214h16.64c6.246 0.256 11.75-4.045 13.056-10.214l76.467-254.285 79.36 254.285c1.203 5.76 6.093 9.907 11.802 10.214h17.459c7.936 0 12.083-4.864 9.882-12.544l-96.486-288.077c-1.869-5.914-7.501-9.779-13.645-9.344h-16.717c-6.221-0.282-11.725 3.994-13.056 10.163l-75.802 250.701-75.827-250.701c-1.229-5.76-6.118-9.882-11.827-10.163h-17.946c-5.786-0.358-11.085 3.072-13.21 8.397l-96.282 287.77c-2.97 8.448 1.152 13.798 9.472 13.798zM583.629 837.862c81.229 0 140.083-65.382 140.083-158.413v-4.736c0.179-3.123-1.024-6.144-3.302-8.32-2.253-2.15-5.35-3.2-8.448-2.867h-232.371c4.685-64.794 45.952-112.077 112.051-112.077 33.536 0 60.672 11.213 82.97 35.328 5.274 5.299 10.010 6.502 16.614 1.792l8.294-5.888c6.477-4.71 7.68-10.598 2.355-15.923-27.238-31.258-66.842-48.922-108.288-48.282-93.568 0.154-151.834 72.602-151.834 160.384 0 91.878 58.112 159.002 141.875 159.002zM1596.749 837.862h4.096c75.878 0 119.091-37.146 119.091-104.909v-195.635c0.41-3.226-0.691-6.451-2.995-8.781-2.304-2.304-5.581-3.405-8.832-3.021h-11.853c-3.251-0.384-6.502 0.717-8.806 3.021-2.33 2.304-3.456 5.555-3.072 8.781v21.811c-26.573-26.368-62.694-40.986-100.224-40.653-72.294 0-117.914 41.805-117.914 97.792 0 55.142 44.288 96.538 114.611 97.792l3.328 0.051c36.378 0.589 71.834-11.52 100.224-34.202v44.826c0 51.814-23.68 80.128-87.706 80.128-29.133 0-57.549-9.062-81.203-25.933-2.253-2.304-5.427-3.482-8.627-3.251-3.226 0.256-6.17 1.869-8.090 4.454l-6.502 7.066c-2.662 2.099-4.045 5.427-3.661 8.781 0.358 3.379 2.406 6.323 5.453 7.834 29.722 21.99 65.715 33.894 102.682 34.074zM1114.957 824.218c2.406-2.33 3.558-5.632 3.149-8.883v-284.877c0.41-3.251-0.768-6.528-3.149-8.858s-5.76-3.456-9.114-3.072h-12.288c-3.328-0.384-6.707 0.742-9.088 3.072-2.406 2.304-3.584 5.606-3.149 8.858v284.902c-0.41 3.277 0.768 6.554 3.149 8.883 2.381 2.304 5.76 3.456 9.114 3.072h12.262c3.354 0.384 6.733-0.768 9.114-3.072zM1321.958 837.862c65.613 0 106.624-37.99 106.624-111.104v-187.136c0.384-3.2-0.717-6.4-3.021-8.704-2.304-2.278-5.504-3.379-8.704-2.995h-11.699c-3.2-0.384-6.426 0.717-8.704 3.021-2.304 2.278-3.405 5.478-3.021 8.704v178.355c0 57.702-24.781 87.091-79.078 87.091-39.834 0-81.997-26.291-104.243-52.582v-212.864c0.384-3.226-0.717-6.426-3.021-8.704-2.304-2.304-5.504-3.405-8.704-3.021h-11.75c-3.2-0.384-6.4 0.717-8.704 3.021-2.278 2.278-3.379 5.478-2.97 8.704v279.501c-0.384 3.2 0.717 6.4 2.995 8.704 2.278 2.278 5.478 3.379 8.704 3.021h11.725c3.2 0.384 6.4-0.717 8.704-3.021 2.304-2.278 3.405-5.478 3.021-8.704v-29.824c27.52 26.317 66.048 48.538 111.872 48.538zM1915.546 837.862c3.021 0.077 6.067-0.128 9.062-0.589 3.2 0.154 6.323-1.024 8.55-3.277 2.202-2.253 3.302-5.325 2.97-8.448v-9.344c0.41-3.2-0.768-6.4-3.123-8.704-2.355-2.278-5.683-3.379-8.986-2.995-4.608 0.512-9.267 0.691-13.901 0.589-39.424-0.896-75.878-20.582-97.357-52.608v-212.838c0.41-3.226-0.717-6.426-3.072-8.704-2.381-2.304-5.709-3.405-9.011-3.021h-12.109c-3.328-0.384-6.656 0.717-8.986 3.021-2.355 2.278-3.507 5.478-3.072 8.704v279.501c-0.41 3.2 0.717 6.4 3.072 8.704 2.355 2.253 5.658 3.379 8.96 2.995h12.134c3.328 0.384 6.63-0.717 8.986-2.995 2.381-2.304 3.507-5.504 3.098-8.704v-29.235c24.73 30.515 62.694 48.23 102.784 47.949zM1592.115 681.088h-3.789c-50.944 0-85.325-22.4-85.325-64.794 0-41.83 34.381-64.845 85.325-64.845 35.968 0.307 70.4 14.464 96.077 39.501v55.373c-25.677 22.118-58.394 34.432-92.288 34.765zM894.336 807.603c-34.739 0-73.677-20.224-97.101-46.387v-163.021c23.347-26.189 62.259-46.438 97.101-46.438 69.478 0 102.4 46.438 102.4 127.923s-32.922 127.923-102.4 127.923zM583.040 804.864c-55.936 0-100.659-42.982-103.731-109.517h207.232c-2.816 66.56-47.616 109.517-103.501 109.517zM1099.699 950.605c15.488-0.154 28.006-12.339 28.16-27.392 0.41-10.035-4.864-19.507-13.747-24.653-8.883-5.12-19.968-5.12-28.851 0-8.883 5.146-14.157 14.592-13.747 24.653 0.179 15.078 12.698 27.238 28.186 27.392z" />
<glyph unicode="&#xe905;" horiz-adv-x="980" d="M823.077 544.48c18.93-10.942 34.246-37.462 34.179-59.211l-1.228-434.065c0-21.78-15.481-30.565-34.411-19.626l-635.3 366.633c-18.93 10.973-34.246 37.462-34.179 59.242l1.225 434.065c0 21.783 15.45 30.534 34.414 19.595l635.3-366.633z" />
<glyph unicode="&#xe906;" horiz-adv-x="980" d="M724.414 67.802c5.221-3.389 8.512-9.069 8.852-15.283 0-5.636-4.013-7.924-8.886-5.107l-80.494 46.413c-5.21 3.397-8.486 9.074-8.821 15.285 0 5.636 4.013 7.89 8.888 5.071l80.46-46.379z" />
<glyph unicode="&#xe907;" horiz-adv-x="980" d="M210.518 955.293l-1.094 0.596-1.393 0.797-1.393 0.663-1.393 0.529-1.359 0.498h-0.266l-1.027 0.335-1.524 0.529-1.393 0.299-1.491 0.266h-1.527c-0.542 0.031-1.083 0.031-1.625 0h-1.79c-0.658-0.039-1.31-0.126-1.955-0.266-0.787-0.132-1.561-0.32-2.321-0.562-0.975-0.322-1.909-0.756-2.786-1.295l-22.74-13.258c1.563 0.898 3.265 1.537 5.037 1.888 1.904 0.413 3.859 0.557 5.804 0.431 2.167-0.214 4.305-0.681 6.363-1.393 2.407-0.867 4.718-1.976 6.897-3.314l622.006-359.971 22.742 13.263-621.777 359.966z" />
<glyph unicode="&#xe908;" horiz-adv-x="980" d="M879.964 530.841v3.317l-0.199 1.689c0 0.565 0 1.161-0.232 1.723 0 0.531-0.165 1.096-0.266 1.625-0.098 0.531-0.232 1.194-0.361 1.79-0.134 0.598-0.268 1.228-0.433 1.824-0.165 0.598-0.299 1.194-0.464 1.824s-0.266 0.929-0.431 1.393v0.266c0 0.266-0.364 1.194-0.565 1.79-0.199 0.596-0.397 1.161-0.629 1.757s-0.397 1.094-0.629 1.659c-0.232 0.562-0.431 1.127-0.663 1.656l-0.531 1.295c-0.013 0.098-0.013 0.199 0 0.297l-0.761 1.659c-0.266 0.596-0.565 1.194-0.862 1.79-0.299 0.596-0.696 1.393-1.063 2.056l-1.225 2.187-0.232 0.366s0 0.297-0.232 0.464c-0.831 1.359-1.659 2.719-2.554 4.044s-1.426 2.089-2.154 3.116l-1.527 1.989-1.326 1.625-1.326 1.558-1.326 1.457-0.299 0.299-1.027 1.094-1.426 1.426-1.524 1.393-1.524 1.326-0.763 0.629h-0.199l-0.565 0.464-1.491 1.161-1.491 1.060-1.46 0.962-1.457 0.895-0.333 0.199-22.742-13.26c2.391-1.408 4.674-2.992 6.83-4.741 2.216-1.826 4.308-3.799 6.265-5.902 4.119-4.416 7.723-9.288 10.74-14.522 0.090-0.124 0.168-0.258 0.232-0.397 1.496-2.569 2.837-5.226 4.011-7.957 1.194-2.742 2.223-5.553 3.085-8.419 0.856-2.768 1.509-5.592 1.955-8.455 0.431-2.752 0.653-5.535 0.663-8.321l-1.225-434.065c0-2.481-0.232-4.955-0.696-7.392v-0.232c-0.402-2.079-1.047-4.106-1.924-6.036-0.702-1.421-1.568-2.757-2.585-3.977-0.333-0.397-0.632-0.825-0.962-1.192-1.091-1.207-2.352-2.244-3.745-3.085l22.742 13.263c1.393 0.849 2.657 1.898 3.745 3.116 0.333 0.364 0.629 0.761 0.962 1.161 0.33 0.397 0.862 0.96 1.225 1.522 0.472 0.763 0.903 1.55 1.295 2.355 0.266 0.565 0.495 1.127 0.727 1.726 0.232 0.596 0.433 1.194 0.598 1.79s0.33 1.161 0.464 1.757c0.013 0.255 0.013 0.508 0 0.763v0.929c0 0.232 0.165 1.094 0.232 1.656l0.199 1.625v3.281l1.225 434.065c0.266 0.797 0.266 1.295 0.232 1.824z" />
<glyph unicode="&#xe909;" horiz-adv-x="980" d="M823.077 575.433c18.93-10.942 34.246-37.462 34.179-59.211l-1.228-434.065c0-21.78-15.481-30.565-34.411-19.626l-635.3 366.633c-18.93 10.973-34.246 37.462-34.179 59.242l1.225 434.065c0 21.783 15.45 30.534 34.414 19.595l635.3-366.633z" />
<glyph unicode="&#xe90a;" horiz-adv-x="980" d="M783.855 576.261c17.405-9.946 31.463-34.411 31.429-54.437l-1.127-399.056c0-19.892-14.223-28.079-31.661-18.001l-554.077 319.689c-17.436 9.946-31.494 34.411-31.427 54.437l1.127 399.056c0 19.892 14.223 28.079 31.628 18.001l554.108-319.689zM833.087 229.452c-2.564 0-4.643 2.079-4.643 4.643v139.104c0 2.564 2.079 4.643 4.643 4.643s4.643-2.079 4.643-4.643v-139.241c-0.072-2.51-2.131-4.509-4.643-4.509z" />
<glyph unicode="&#xe90b;" horiz-adv-x="980" d="M173.786 674.657c5.775-3.766 9.407-10.059 9.778-16.941 0-6.232-4.442-8.718-9.946-5.602-5.845 3.719-9.544 10.023-9.946 16.941 0.266 6.232 4.676 8.752 10.111 5.602z" />
<glyph unicode="&#xe90c;" horiz-adv-x="980" d="M554.74 615.779c1.71-5.597 2.93-11.331 3.647-17.14 0.418-3.302 0.629-6.621 0.629-9.946v-3.314l-0.199-2.719v-0.498c0-0.905-0.101-1.769-0.299-2.587 0-1.161-0.33-1.986-0.464-2.786-0.132-0.794-0.397-1.857-0.596-2.618-0.015-0.132-0.015-0.266 0-0.397-0.199-0.794-0.397-1.524-0.629-2.254-0.015-0.132-0.015-0.266 0-0.397-0.266-0.73-0.498-1.46-0.797-2.156-0.297-0.696-0.629-1.522-0.929-2.187-0.297-0.663-0.761-1.524-1.094-2.154l-0.199-0.366c-0.33-0.596-0.696-1.194-1.060-1.757-0.008-0.088-0.008-0.178 0-0.266-0.397-0.596-0.797-1.161-1.228-1.723-0.431-0.565-0.862-1.094-1.326-1.591l-0.199-0.199c-0.431-0.498-0.862-0.962-1.326-1.426l-0.266-0.232-1.426-1.259-0.232-0.199c-0.495-0.366-0.993-0.763-1.522-1.096-0.547-0.408-1.125-0.774-1.728-1.094l-0.297-0.199-1.659-0.828h-0.33c-0.57-0.279-1.158-0.521-1.757-0.73-0.369-0.142-0.748-0.263-1.127-0.364 0 21.151-15.053 46.743-33.384 57.321-18.334 10.575-34.181 1.857-34.181-19.397 0 0 0.531-0.892 1.524-2.419l-1.522 1.891-1.96 2.884-0.297 0.464c-0.596 0.895-1.161 1.824-1.723 2.719-0.134 0.191-0.258 0.389-0.366 0.596-0.593 0.962-1.161 1.891-1.689 2.853-0.531 0.96-1.127 1.986-1.659 2.951l-0.297 0.562c-0.531 0.962-1.029 1.891-1.527 2.884 0 0 0 0.333-0.263 0.531l-1.359 2.786c-0.598 1.259-1.029 2.254-1.46 3.314l-0.299 0.629-1.259 2.984-1.228 3.314s0 0.299-0.165 0.464c-0.364 0.996-0.73 1.989-1.060 3.018l0.034 0.199c-0.696 2.056-1.326 4.111-1.857 6.165-0.010 0.212-0.010 0.42 0 0.632-0.266 0.993-0.531 1.989-0.763 2.984 0.021 0.175 0.021 0.353 0 0.529l-0.596 2.853c-0.266 1.326-0.431 2.352-0.596 3.314v0.629c0 0.996-0.299 1.989-0.431 2.984-0.134 0.993-0.232 2.221-0.299 3.147v0.5c0 0.96 0 1.922-0.165 2.884 0.015 0.209 0.015 0.42 0 0.629v2.951c-0.010 3.095 0.212 6.188 0.663 9.25 0.588 4.449 1.839 8.785 3.714 12.863 0.361 0.763 0.727 1.491 1.125 2.187 8.95 16.080 27.883 19.892 49.73 7.196 19.626-11.339 36.8-33.155 46.413-56.359 0.663-1.561 1.259-3.085 1.824-4.643 0.33-2.187 1.094-4.475 1.79-6.763zM505.010 614.187c11.305-6.629 20.49-1.292 20.521 11.702-0.748 14.354-8.331 27.48-20.387 35.309-11.272 6.629-20.488 1.29-20.521-11.705 0.766-14.349 8.344-27.47 20.387-35.306z" />
<glyph unicode="&#xe90d;" horiz-adv-x="980" d="M641.034 441.861c4.537-2.933 7.385-7.867 7.661-13.26v-32.257c0-4.875-3.317-6.83-7.692-4.377l-295.056 170.27c-4.54 2.933-7.403 7.864-7.692 13.26v32.257c0 4.841 3.482 6.631 7.723 4.344l295.056-170.237zM640.838 371.677c4.529-2.938 7.377-7.867 7.655-13.26v-32.257c0-4.875-3.314-6.797-7.689-4.344l-295.059 170.27c-4.547 2.925-7.408 7.862-7.689 13.26v32.26c0 4.875 3.314 6.83 7.723 4.411l295.056-170.34z" />
<glyph unicode="&#xe90e;" horiz-adv-x="980" d="M509.287 357.62c8.453-5.494 13.763-14.7 14.29-24.764v-5.804c0-9.115-6.43-12.763-14.354-8.187l-74.925 43.33c-8.455 5.479-13.779 14.671-14.323 24.731v5.834c0 9.084 6.631 12.765 14.39 8.189l74.922-43.33z" />
<glyph unicode="&#xe90f;" horiz-adv-x="980" d="M237.14 361.765s-25.461-14.687-29.374-81.755c3.314-12.399 22.809-18.896 37.795-9.115 14.986 9.778-0.565 79.464-8.422 90.87z" />
<glyph unicode="&#xe910;" horiz-adv-x="980" d="M366.566 289.293s58.283 25.992 66.109 30.4c7.821 4.411 13.722 20.557 16.575 23.97 2.85 3.415 16.144 11.272 15.682 7.857-0.464-3.415-7.361-9.946-7.361-9.946 2.556-4.282 4.529-8.886 5.868-13.691 0.993-5.404-6.366-16.178-10.279-19.128-3.91-2.951-13.258-3.913-13.258-3.913s-47.512-31.827-55.368-32.324c-7.857-0.495-18.961 4.044-17.968 16.776z" />
<glyph unicode="&#xe911;" horiz-adv-x="980" d="M247.914-28.209s-1.491-11.104 0.498-15.646c3.531-5.089 10.477-6.428 15.649-3.018 5.357 4.367 10.418 9.084 15.148 14.124 0 0 16.147 8.584 17.671 13.258 1.524 4.676-4.044 8.556-8.587 7.56-4.54-0.993-17.669-9.381-23.704-9.381s-14.651-1.359-16.675-6.897z" />
<glyph unicode="&#xe912;" horiz-adv-x="980" d="M231.272 208.103s14.122-233.095 15.878-239.825c1.759-6.732 20.093-10.642 23.506 0 2.156 6.797 7.459 222.487 7.459 222.487l-46.843 17.338z" />
<glyph unicode="&#xe913;" horiz-adv-x="980" d="M294.626-42.099c-0.792-0.678-1.241-1.677-1.228-2.719 0-3.314 0-10.343 1.924-13.26 4.191-5.339 11.684-6.758 17.54-3.314 10.601 6.784 20.859 14.099 30.73 21.912 2.020 1.648 3.451 3.905 4.075 6.433 0.423 1.726-0.459 3.503-2.087 4.209-3.725 1.898-8.009 2.394-12.066 1.393-6.631-2.221-15.053-9.448-24.135-9.051-5.437-0.005-10.684-1.996-14.754-5.602z" />
<glyph unicode="&#xe914;" horiz-adv-x="980" d="M325.789 205.583c-1.029 9.68-12.598 12.83-23.206 9.549-20.39 1.094-51.917 0.232-53.044-15.582-1.659-23.405 9.317-40.114 19.892-51.484 7.79-8.391 12.995-24.468 15.182-32.293 1.857-61.796 5.969-148.986 8.522-157.307 4.109-13.462 24.401-12.863 25.329 0.232 4.075 44.223 7.325 246.885 7.325 246.885z" />
<glyph unicode="&#xe915;" horiz-adv-x="980" d="M325.856 198.288c-2.388-11.968-36.469-17.934-56.359-14.754-19.892 3.185-41.476 12.964-40.746 36.072 0 0-3.049 92.364-3.049 110.53 0.328 11.496 4.336 22.582 11.437 31.628 0 0 11.171 12.729 46.413 5.571 0 0 28.579-6.234 41.739-27.354 0 0 9.084-23.206 6.067-71.675s-5.502-70.019-5.502-70.019z" />
<glyph unicode="&#xe916;" horiz-adv-x="980" d="M256.003 393.093s3.018-17.669 0-25.726c-0.498-4.044 17.14-17.669 32.789-14.155 9.084 2.022 8.587 6.629 8.587 6.629s-7.557 12.631-6.629 24.733c0.929 12.1-24.168 10.905-34.744 8.52z" />
<glyph unicode="&#xe917;" horiz-adv-x="980" d="M314.948 428.534c0-22.997-18.644-41.641-41.638-41.641-22.997 0-41.641 18.644-41.641 41.641s18.644 41.638 41.641 41.638c22.987-0.018 41.62-18.649 41.638-41.638z" />
<glyph unicode="&#xe918;" horiz-adv-x="980" d="M311.304 345.401s9.121 2.654 19.569-12.69c4.086-5.997-2.337 0.769 5.030-8.834l-4.485-55.68c-12.216 8.396-24.323 20.428-27.279 27.847-5.871 14.728-14.958 48.677 7.165 49.358z" />
<glyph unicode="&#xe919;" horiz-adv-x="980" d="M314.948 425.748s0.498-41.705-8.587-50.091c-9.084-8.391-23.206 7.854-45.319 13.093-22.311 5.736 18.068 49.1 18.068 49.1l35.837-12.102z" />
<glyph unicode="&#xe91a;" horiz-adv-x="980" d="M311.634 349.696s9.115 2.587 19.559-12.365 25.394-34.545 32.556-37.793c7.16-3.25 16.941 3.314 20.851 3.314 3.913 0 14.323-18.236 10.41-27.351s-29.307-13.691-35.837-13.691-48.835 25.427-54.703 39.784c-5.868 14.354-14.95 47.439 7.163 48.105z" />
<glyph unicode="&#xe91b;" horiz-adv-x="980" d="M378.767 300.83c2.087 4.643 6.647 7.686 11.736 7.823 9.118 0.663 19.526-16.941 18.863-26.686-0.663-9.75-14.852-14.854-18.166-12.401-3.314 2.456 3.314 9.118-12.432 31.262z" />
<glyph unicode="&#xe91c;" horiz-adv-x="980" d="M298.371 463.675s14.986-3.314 19.562-26.057c-1.958-9.75-15.649-1.958-20.854-14.986-2.051-5.989-4.893-11.674-8.453-16.908l-3.317 1.292s0 10.41-4.573 10.41c-4.576 0-5.868-12.365-3.317-17.57 1.955-3.41 4.903-6.139 8.455-7.823 0 0-6.629-11.073-9.946-12.368-3.314-1.29-14.952 1.295-19.526 3.317-4.576 2.022-13.031 11.073-19.528 21.483-6.5 10.408-12.399 28.675-8.486 41.043 1.806 6.889 6.577 12.623 13.026 15.646 3.745 4.705 8.692 8.303 14.323 10.41 14.633 4.754 30.674 1.785 42.637-7.89z" />
<glyph unicode="&#xe91d;" horiz-adv-x="980" d="M305.498 358.582l-10.872 6.1s-27.78 2.585-37.762 9.115l-5.236-7.392c5.321-8.759 14.542-14.416 24.762-15.182 17.805-1.759 26.059 5.203 26.059 5.203l3.051 2.156z" />
<glyph unicode="&#xe91e;" horiz-adv-x="980" d="M795.289 688.813v-12.2c-0.015-3.34-1.806-6.42-4.7-8.086-2.897-1.666-6.459-1.666-9.355-0.003l-57.586 33.418c-2.884 1.674-4.663 4.751-4.674 8.089v12.234c0.026 3.333 1.824 6.402 4.718 8.060 2.891 1.659 6.448 1.656 9.337-0.005l57.556-33.418c2.897-1.666 4.689-4.746 4.707-8.089zM977.365 523.018v-12.234c-0.015-3.333-1.803-6.405-4.694-8.066-2.889-1.661-6.443-1.656-9.329 0.010l-239.861 138.444c-2.886 1.684-4.666 4.777-4.669 8.125v12.329c0.013 3.335 1.8 6.407 4.692 8.068 2.889 1.659 6.446 1.656 9.332-0.010l239.825-138.446c2.94-1.687 4.738-4.831 4.707-8.22z" />
<glyph unicode="&#xe91f;" horiz-adv-x="980" d="M878.138 458.601v-12.234c-0.013-3.333-1.8-6.405-4.692-8.066-2.889-1.659-6.443-1.656-9.329 0.010l-140.933 81.355c-2.899 1.677-4.682 4.774-4.674 8.125v12.229c-0.005 3.345 1.78 6.433 4.676 8.099 2.897 1.664 6.464 1.651 9.348-0.039l140.93-81.358c2.902-1.677 4.684-4.772 4.676-8.122z" />
<glyph unicode="&#xe920;" horiz-adv-x="980" d="M940.001 483.732v-12.234c-0.013-3.333-1.8-6.405-4.692-8.066-2.889-1.661-6.446-1.656-9.332 0.010l-202.626 116.994c-2.897 1.682-4.679 4.777-4.676 8.125v12.2c0.003 3.338 1.787 6.423 4.679 8.089 2.891 1.669 6.454 1.669 9.345 0l202.628-116.997c2.907-1.669 4.692-4.772 4.674-8.122z" />
<glyph unicode="&#xe921;" horiz-adv-x="980" d="M279.276 531.937c-27.465 12.69-49.73 45.242-49.73 72.707s22.265 37.749 49.73 22.972c27.465-14.777 49.73-47.328 49.73-72.704 0-25.378-22.265-35.662-49.73-22.974z" />
<glyph unicode="&#xe922;" horiz-adv-x="980" d="M254.213 584.762l7.56 6.356 10.774-13.041 21.814 15.646 10.080-12.652-29.474-21.22z" />
<glyph unicode="&#xe923;" horiz-adv-x="980" d="M214.429 775.177c12.51-8.151 20.372-21.79 21.151-36.702 0-13.56-9.58-18.994-21.28-12.231l-193.118 111.49c-12.533 8.161-20.408 21.829-21.182 36.766 0 13.462 9.582 18.932 21.318 12.167l193.11-111.49z" />
<glyph unicode="&#xe924;" horiz-adv-x="980" d="M946.501 184.796c8.713-5.644 14.186-15.128 14.72-25.494 0-9.415-6.629-13.26-14.818-8.486l-134.167 77.509c-8.692 5.682-14.161 15.159-14.72 25.528 0 9.378 6.629 13.26 14.818 8.45l134.167-77.509z" />
<glyph unicode="&#xe925;" d="M94.72 746.667h836.267c4.713 0 8.533-3.821 8.533-8.533v-580.267c0-4.713-3.821-8.533-8.533-8.533h-836.267c-4.713 0-8.533 3.821-8.533 8.533v580.267c0 4.713 3.821 8.533 8.533 8.533z" />
<glyph unicode="&#xe926;" d="M102.4 746.667h819.2c9.426 0 17.067-7.641 17.067-17.067v-563.2c0-9.426-7.641-17.067-17.067-17.067h-819.2c-9.426 0-17.067 7.641-17.067 17.067v563.2c0 9.426 7.641 17.067 17.067 17.067z" />
<glyph unicode="&#xe927;" d="M938.667 214.187v-64.853h-853.333v64.853h853.333zM938.667 369.92v-78.080h-853.333v78.080h853.333zM938.667 526.080v-78.080h-554.667v78.080h554.667zM938.667 681.813v-78.080h-554.667v78.080h554.667z" />
<glyph unicode="&#xe928;" d="M85.333 746.667h298.667v-298.667h-298.667v298.667z" />
<glyph unicode="&#xe929;" d="M234.657 556.646l8.358-25.202h27.049l-21.884-15.575 8.359-25.202-21.882 15.575-21.882-15.575 8.359 25.202-21.884 15.575h27.049l8.358 25.202zM142.074 556.646l8.358-25.202h27.049l-21.884-15.575 8.359-25.202-21.882 15.575-21.882-15.575 8.359 25.202-21.884 15.575h27.049l8.358 25.202zM327.26 556.646l8.358-25.202h27.049l-21.884-15.575 8.359-25.202-21.882 15.575-21.882-15.575 8.359 25.202-21.884 15.575h27.049l8.358 25.202zM234.657 630.323l8.358-25.202h27.049l-21.884-15.575 8.359-25.202-21.882 15.575-21.882-15.575 8.359 25.202-21.884 15.575h27.049l8.358 25.202zM142.074 630.323l8.358-25.202h27.049l-21.884-15.575 8.359-25.202-21.882 15.575-21.882-15.575 8.359 25.202-21.884 15.575h27.049l8.358 25.202zM327.26 630.323l8.358-25.202h27.049l-21.884-15.575 8.359-25.202-21.882 15.575-21.882-15.575 8.359 25.202-21.884 15.575h27.049l8.358 25.202zM327.26 704l8.358-25.202h27.049l-21.884-15.575 8.359-25.202-21.882 15.575-21.882-15.575 8.359 25.202-21.884 15.575h27.049l8.358 25.202zM234.644 704l8.358-25.202h27.049l-21.884-15.575 8.359-25.202-21.882 15.575-21.882-15.575 8.359 25.202-21.884 15.575h27.049l8.358 25.202zM142.074 704l8.358-25.202h27.049l-21.884-15.575 8.359-25.202-21.882 15.575-21.882-15.575 8.359 25.202-21.884 15.575h27.049l8.358 25.202z" />
<glyph unicode="&#xe92a;" d="M94.72 746.667h836.267c4.713 0 8.533-3.821 8.533-8.533v-580.267c0-4.713-3.821-8.533-8.533-8.533h-836.267c-4.713 0-8.533 3.821-8.533 8.533v580.267c0 4.713 3.821 8.533 8.533 8.533z" />
<glyph unicode="&#xe92b;" d="M370.347 149.333h-269.473c-8.111 0-14.687 7.033-14.687 15.708v565.917c0 8.675 6.575 15.708 14.687 15.708h269.473v-597.333z" />
<glyph unicode="&#xe92c;" d="M370.347 746.667h284.16v-597.333h-284.16v597.333z" />
<glyph unicode="&#xe92d;" d="M923.98 149.333h-269.473v597.333h269.473c8.111 0 14.687-7.033 14.687-15.708v-565.917c0-8.675-6.575-15.708-14.687-15.708z" />
<glyph unicode="&#xe92e;" glyph-name="404" horiz-adv-x="2470" d="M1870.648 956.523c34.183-0.185 61.893-27.556 62.675-61.554l0.018-1.485v-733.527c-0.308-33.963-27.441-61.484-61.22-62.442l-1.472-0.022h-524.934v-9.572c-0.154-54.452 29.894-104.439 77.899-129.885l1.934-1.002h317.48c4.812 43.21 45.557 77.591 94.898 77.591 48.77 0 89.141-33.309 94.718-76.075l0.185-1.516h200.919l-2.356 8.122-2.092 7.383-2.496 9.031c-13.044 47.772-33.748 133.177-33.748 193.228 0 4.571 3.52 8.319 7.999 8.684l0.712 0.026h42.639l-23.899 152.093c-0.633 4.14 1.846 8.122 5.832 9.379 3.758 1.187 7.801-0.374 9.805-3.692l0.352-0.642 69.113-141.149 26.475 107.393c0.936 4.114 4.808 6.874 9.001 6.416 3.951-0.365 7.080-3.415 7.607-7.287l0.070-0.734 4.127-81.718 46.304 151.636c1.266 4.149 5.463 6.676 9.726 5.845 4.026-0.778 6.878-4.307 6.869-8.341l-0.035-0.716-16.674-188.768h35.299c4.821 0 8.737-3.889 8.768-8.711 0-66.793-25.78-165.251-37.95-208.070l-2.795-9.695h158.223c4.096-0.826 7.041-4.421 7.041-8.596 0-3.933-2.611-7.348-6.329-8.425l-0.712-0.176h-2452.282c-4.083 0.831-7.036 4.426-7.036 8.605 0 3.929 2.611 7.348 6.329 8.421l0.712 0.176h117.364v397.536c0 2.347 0.94 4.593 2.606 6.241 1.485 1.463 3.437 2.347 5.498 2.505l0.778 0.022h68.366c4.579-0.031 8.319-3.564 8.684-8.051l0.026-0.716v-24.523h59.484c4.615 0 8.394-3.564 8.746-8.087l0.022-0.686v-109.739h55.762v14.327c0 4.571 3.516 8.315 7.999 8.68l0.712 0.026h34.385c3.661 0.009 6.9-2.281 8.144-5.669l0.22-0.69 22.466 5.731c2.25 0.563 4.632 0.233 6.649-0.919 1.762-1.046 3.098-2.676 3.784-4.597l0.224-0.73 70.546-268.6c0.057-0.51 0.075-1.020 0.057-1.529l-0.057-0.765h552.608c48.497 24.783 79.186 74.378 79.824 128.716l0.009 2.175v9.858h-524.934c-34.051 0.185-61.704 27.354-62.671 61.216l-0.022 1.477v733.87c0.185 34.095 27.424 61.765 61.33 62.671l1.477 0.022h1272.221zM262.498 19.497h-50.831v-63.040h50.831v63.040zM387.773 148.495l-0.229-191.98h50.488l-50.26 191.98zM194.65-30.815h-50.778l-0.519-12.552h51.288v12.547zM2321.942 125.172h-207.683l0.694-5.050 0.848-5.797 0.883-5.735c9.119-57.507 25.644-118.512 33.203-144.736l2.079-7.106h132.206l2.386 8.148c8.245 28.597 26.347 95.285 34.697 155.226l0.686 5.050zM370.066 147.867h-16.678v-191.119h16.678v191.119zM335.91 123.853h-55.99v-167.105h55.99v167.105zM1328.293 97.493h-187.563v-9.858c0.18-50.528-22.972-98.26-62.653-129.398l-1.934-1.494h316.68c-40.178 30.623-63.945 78.031-64.516 128.448l-0.013 2.444v9.858zM1846.692 16.689v-14.67c0.268-3.292-1.336-6.452-4.149-8.183-2.813-1.727-6.364-1.727-9.176 0-2.597 1.595-4.166 4.412-4.18 7.427l0.026 0.756v14.67c-35.291-3.722-63.101-27.855-68.516-58.214l-0.251-1.499h154.729c-4.456 30.566-32.003 55.362-66.793 59.528l-1.692 0.185zM405.823 214.282l-16.503-3.955 66.248-251.693 16.103 4.188-65.848 251.46zM194.65 193.595h-50.778l-0.519-206.936h51.288v206.936zM262.959 147.752h-50.835l-0.461-110.891h51.288v110.891zM1915.862 190.272h-1362.755v-30.316c0.013-12.007 4.795-23.512 13.294-31.995 8.13-8.113 19.030-12.815 30.469-13.198l1.56-0.022h1272.221c24.528 0.031 44.485 19.566 45.197 43.927l0.018 1.288v30.316zM336.424 193.481h-56.505v-52.264h56.505v52.264zM2325.493 165.688h-214.842c0.237-6.302 0.677-12.886 1.275-19.68l0.387-4.105h211.577l0.668 7.001c0.422 4.615 0.769 9.132 0.888 13.519l0.048 3.265zM1241.126 163.227c0.549-0.114 1.090-0.286 1.604-0.519 0.545-0.211 1.064-0.483 1.547-0.804 0.479-0.312 0.923-0.677 1.318-1.086 0.396-0.413 0.756-0.857 1.090-1.318 0.299-0.483 0.571-0.976 0.8-1.494 0.233-0.527 0.404-1.090 0.514-1.661 0.040-0.378 0.053-0.76 0.040-1.143l-0.040-0.571c0-1.143-0.233-2.277-0.686-3.327-0.453-1.042-1.099-1.995-1.89-2.808-1.635-1.657-3.867-2.584-6.192-2.58-1.134 0.004-2.263 0.22-3.323 0.633-1.077 0.453-2.048 1.112-2.865 1.947-0.672 0.839-1.195 1.789-1.547 2.808-0.308 0.795-0.501 1.626-0.585 2.474l-0.044 0.848c-0.057 0.571-0.057 1.147 0 1.718 0.119 0.567 0.268 1.121 0.457 1.666 0.233 0.514 0.501 1.011 0.8 1.49 0.334 0.461 0.699 0.905 1.090 1.318 2.070 2.070 5.036 2.975 7.911 2.404zM370.066 179.839h-16.678v-14.723h16.678v14.723zM211.667 312.282v-147.052h51.288v146.937l-51.288 0.114zM2291.684 292.286l-33.295-108.887h23.666l9.625 108.882zM2234.718 246.439l-15.584-63.040h18.797l-3.208 63.040zM2146.007 282.309l15.531-98.91h32.953l-48.484 98.91zM370.295 216.404h-16.678l-0.229-19.082h16.907v19.082zM1870.534 939.045h-1272.217c-24.523-0.031-44.485-19.566-45.192-43.931l-0.022-1.283v-685.851h1362.645v685.851c-0.031 24.523-19.566 44.485-43.927 45.192l-1.288 0.022zM194.132 276.75h-50.774v-65.677h51.288l-0.514 65.677zM194.65 345.459h-51.288v-51.578h51.288v51.582zM1227.242 738.596c16.292 0 31.612-3.375 45.966-10.126s26.879-17.030 37.589-30.839c10.706-13.809 19.162-31.265 25.367-52.369 6.206-21.1 9.308-46.080 9.308-74.941s-3.103-53.841-9.308-74.945c-6.206-21.1-14.661-38.556-25.367-52.365-10.71-13.809-23.236-24.088-37.589-30.839s-29.674-10.126-45.97-10.126c-16.292 0-31.573 3.375-45.847 10.126s-26.765 17.030-37.47 30.839c-10.71 13.809-19.126 31.265-25.253 52.365-6.131 21.104-9.194 46.084-9.194 74.945s3.063 53.837 9.194 74.941c6.126 21.104 14.547 38.56 25.253 52.369s23.196 24.088 37.47 30.839c14.274 6.75 29.555 10.126 45.851 10.126zM1562.393 735.335v-217.615h60.28v-12.099l-0.031-0.712c-0.127-1.376-0.62-2.501-1.485-3.362-0.879-0.883-2.211-1.38-3.982-1.494l-0.791-0.018h-53.995v-94.494h-20.014v94.489l-156.087 0.026c-1.916 0.11-3.419 0.606-4.505 1.49-1.037 0.839-1.802 1.921-2.294 3.248l-0.264 0.826-2.096 10.939 165.479 218.776h19.781zM1022.425 735.335v-217.615h60.284v-12.099l-0.035-0.712c-0.123-1.376-0.615-2.501-1.481-3.362-0.879-0.883-2.211-1.38-3.982-1.494l-0.791-0.018h-53.995v-94.494h-20.014v94.489l-156.087 0.026c-1.916 0.11-3.419 0.606-4.505 1.49-1.037 0.839-1.802 1.921-2.294 3.248l-0.264 0.826-2.096 10.939 165.479 218.776h19.781zM1227.242 719.975c-12.723 0-24.831-2.791-36.31-8.377-11.484-5.586-21.566-14.393-30.254-26.417-8.693-12.024-15.597-27.503-20.717-46.432-5.12-18.933-7.678-41.742-7.678-68.428 0-26.844 2.558-49.693 7.678-68.542 5.12-18.854 12.024-34.293 20.717-46.317 8.689-12.024 18.77-20.788 30.254-26.299s23.587-8.262 36.31-8.262c12.723 0 24.862 2.751 36.425 8.262 11.558 5.507 21.645 14.274 30.254 26.299 8.614 12.024 15.479 27.468 20.599 46.317 5.12 18.854 7.682 41.698 7.682 68.542 0 26.686-2.562 49.495-7.682 68.428-5.12 18.929-11.985 34.407-20.599 46.432s-18.696 20.832-30.254 26.413c-11.558 5.59-23.701 8.381-36.425 8.381zM1543.54 707.639l-142.213-189.919h141.044v172.463l0.013 2.008c0.031 2.039 0.101 4.162 0.22 6.373 0.114 2.211 0.321 4.465 0.611 6.764l0.321 2.312zM1003.575 707.639l-142.209-189.919h141.044v172.463l0.013 2.008c0.031 2.039 0.101 4.162 0.22 6.373 0.114 2.211 0.321 4.465 0.611 6.764l0.321 2.312z" />
<glyph unicode="&#xe92f;" glyph-name="replay" horiz-adv-x="998" d="M509.54 755.2c76.422 0 149.135-28.82 205.512-80.486v0l7.252-6.864 27.53 30.595c5.347 5.95 14.002 6.857 20.348 2.504v0l2.022-1.646c3.284-3.148 5.113-7.584 5.035-12.201v0l-1.636-96.799c-0.152-8.981-7.342-16.153-16.081-15.995v0l-83.993 1.514c-8.738 0.158-15.68 7.582-15.528 16.562 0.068 4.001 1.563 7.837 4.205 10.777v0l29.802 33.189-1.073 1.093c-47.465 45.995-109.294 72.589-174.827 74.725v0l-8.568 0.14c-148.138 0-268.245-124.055-268.245-277.107s120.107-277.107 268.245-277.107c109.899 0 208.313 69.097 249.050 173.955 4.274 11 16.4 16.352 27.080 11.926 10.658-4.417 15.818-16.892 11.554-27.87-47.042-121.088-160.721-200.904-287.683-200.904-171.141 0-309.86 143.279-309.86 320s138.719 320 309.86 320zM462.438 550.468l1.277-0.727 152.74-91.058c4.088-2.419 8.175-4.88 12.078-7.341 9.736-6.259 8.894-22.043-1.787-28.599l-16.244-9.834-32.643-19.423-113.672-67.891c-5.176-3.098-10.373-5.028-16.289-2.907-6.759 2.347-10.413 7.845-10.843 16.355l-0.043 1.742v192.873c0 16.397 11.859 24.095 25.426 16.809z" />
<glyph unicode="&#xe930;" glyph-name="access" horiz-adv-x="998" d="M687.787 755.2c45.899 0 83.397-36.89 85.846-83.34l0.127-4.838v-438.044c0-47.076-35.968-85.536-81.256-88.047l-4.717-0.13h-288.774c-55.118 0-88.12 29.816-90.259 82.632l-0.111 5.546v86.676c0 14.138 11.175 25.6 24.96 25.6 12.8 0 23.35-9.883 24.792-22.614l0.168-2.986v-86.676c0-25.873 9.302-36.004 36.271-36.91l4.179-0.068h288.774c18.74 0 34.141 14.665 35.888 33.417l0.165 3.561v438.044c0 19.221-14.298 35.017-32.581 36.809l-3.472 0.169h-288.774c-28.757 0-39.428-8.899-40.379-33.214l-0.071-3.764v-87.287c0-14.138-11.175-25.6-24.96-25.6-12.8 0-23.35 9.883-24.792 22.614l-0.168 2.986v87.287c0 54.395 31.165 86.024 84.747 88.072l5.623 0.106h288.774zM528.634 569.342l2.351-2.13 102.344-101.11c0.711-0.729 1.378-1.501 1.999-2.313l-1.999 2.313 1.336-1.481 1.743-2.355 1.174-1.976 1.128-2.404 1.035-3.077 0.524-2.402 0.268-2.078 0.088-3.181-0.048-0.957-0.309-2.602-0.679-2.953-1.173-3.213-1.161-2.305-1.618-2.497-2.309-2.725-102.344-101.99c-9.747-9.997-25.551-9.997-35.299 0-8.998 9.228-9.69 23.75-2.076 33.792l2.076 2.412 59.698 58.288h-305.785c-13.785 0-24.96 11.462-24.96 25.6 0 13.129 9.636 23.949 22.049 25.428l2.911 0.172h305.785l-59.698 57.408c-8.998 9.228-9.69 23.75-2.076 33.792l2.076 2.412c8.998 9.228 23.156 9.938 32.947 2.13z" />
<glyph unicode="&#xe931;" glyph-name="applause" horiz-adv-x="998" d="M480.197 492.291c21.487 21.783 50.065 21.215 68.362 0.382l2.43-2.966 1.43-2.004 0.849 0.646c13.256 9.684 27.49 12.355 42.394 6.977l3.74-1.513 3.767-1.852c14.829-7.858 22.232-20.311 23.633-36.754l0.226-4.193-0.007-1.547 1.979-0.779c6.888-2.93 12.5-6.698 17.011-11.782l2.576-3.212 2.319-3.551c11.253-19.111 8.835-41.628-6.411-57.509l-9.622-9.82-7.527-7.485 1.699-1.292c4.822-3.95 8.782-8.496 11.864-13.71l2.146-4.036 1.815-4.293c5.771-15.485 3.789-29.953-6.222-41.918l-2.67-2.938-18.757-19.109-56.193-57.535-30.202-30.617-20.339-20.313-19.202-18.862c-2.098-2.043-4.19-4.072-6.279-6.093-44.91-43.412-99.353-55.898-157.52-35.381-57.642 20.324-92.357 63.458-101.47 125.172-7.264 49.245 7.643 93.525 42.93 130.507l11.512 11.963 22.453 22.817 36.489 36.646c17.848 17.96 41.841 20.302 61.8 5.509 2.867-2.129 5.208-4.509 7.948-7.916l1.57-2.040 69.48 70.403zM510.577 467.36l-147.978-149.879c-1.941-2.241-4.098-4.283-6.977-6.482-8.436-5.616-18.111-4.795-25.129 2.61-6.733 7.052-7.316 16.459-1.615 24.936 1.082 1.447 2.251 2.826 3.397 4.029l1.69 1.66 35.123 35.938 9.573 9.908c0.905 0.953 1.547 2.137 1.812 3.235 0.788 3.627-0.53 6.432-4.029 8.414-1.668 0.952-4.274 0.755-6.533-0.656l-1.61-1.287-51.786-52.223-18.090-18.64c-1.428-1.488-2.845-2.971-4.26-4.455-21.257-22.321-31.402-49.6-30.857-81.973 1.062-62.447 53.124-113.759 114.646-113.020 31.728 0.341 57.577 10.979 79.532 33.066l75.436 76.088 76.303 77.321c0.411 1.316-3.075 7.197-7.071 9.361l-1.772 0.912c-0.65 0.231-1.071 0.088-1.833-0.599l-2.145-2.147c-22.963-23.31-45.977-46.594-69.078-69.889-8.377-8.353-20.666-9.261-28.824-1.398-8.583 8.285-8.339 20.3 0.389 29.181l74.939 75.784 32.553 32.672 10.728 11.007c3.055 3.15 2.842 6.526-0.851 9.994-3.483 3.27-6.16 3.159-10.013-0.736l-104.869-106.104c-2.389-2.611-5.087-4.916-7.925-6.792-7.802-5.317-18.312-3.918-24.056 2.788-6.54 6.645-7.716 15.744-2.649 24.053 0.964 1.458 2.010 2.858 3.177 4.239l1.847 2.062 113.43 114.607c4.201 4.233 4.323 7.797 0.747 11.508-2.688 2.789-5.792 3.085-9.093 0.614l-1.426-1.229-7.339-7.302-14.666-14.991c-33.849-34.504-67.758-68.957-101.727-103.359-8.695-8.804-20.41-9.474-28.835-1.282-7.814 7.597-7.722 18.782-0.904 27.5l1.844 2.125 5.587 5.742 11.12 11.213 39.667 40.249 39.72 40.090c2.907 2.962 3.281 3.799 2.802 5.589-0.834 3.625-3.517 6.496-7.309 7.624-1.583 0.529-2.654 0.29-4.811-1.675zM457.062 648.782c21.166 21.402 50.711 20.047 68.567-1.215l2.361-3.022 0.653-0.961 0.57 0.432c11.923 8.912 24.923 11.975 38.683 8.313l3.771-1.166 3.808-1.504c16.983-7.38 26.009-20.858 27.579-38.25l0.23-4.082-0.017-2.003 2.267-1.116c2.731-1.326 4.918-2.472 6.856-3.653l1.867-1.2 2.345-1.717c12.18-9.538 17.926-23.299 17.329-39.493-0.442-11.58-8.687-19.834-19.94-19.516-9.686 0.274-17.041 6.814-18.539 16.521l-0.261 2.723 0.009 1.593c0.196 4.928-1.251 7.355-5.122 8.998-2.374 1.008-4.299 0.744-6.625-1.111l-1.45-1.306-5.504-5.783-8.719-8.687c-9.103-9.074-20.669-10.418-29.265-1.909-8.599 8.513-7.452 20.341 1.518 29.484l15.899 15.821c1.897 1.935 3.447 3.579 5.067 5.369 4.348 4.786 4.4 8.94 1.021 12.229-3.086 3.004-7.093 2.661-11.736-2.047l-119.736-121.354c-2.635-2.834-5.658-5.274-9.257-7.404-8.412-4.606-18.571-2.711-24.034 6.064-2.801 5.246-3.762 11.291-2.726 17.185 0.536 2.992 1.801 5.388 3.845 7.905l1.681 1.922 96.482 97.659c3.324 3.385 3.3 5.689-0.371 9.533-3.64 3.811-6.556 3.936-9.647 0.801l-101.379-102.838c-16.392-16.614-32.823-33.181-49.277-49.685-8.857-8.926-20.125-10.037-28.753-1.658-8.071 7.839-7.837 18.551-0.639 27.403l1.944 2.172 41.91 42.509c1.189 1.219 2.354 2.416 3.503 3.599 3.954 4.089 4.245 7.498 1.609 10.69-3.081 3.728-7.191 4.022-10.701 0.723l-4.471-4.284-5.067-5.077-9.68-9.901-51.045-51.579c-25.573-25.786-37.593-55.024-35.989-88.678l-31.794-42.772c-2.574 8.281-4.321 14.879-5.24 19.794s-1.332 9.875-1.241 14.88l-0.436 7.552c-0.131 3.471-0.129 6.581 0.008 9.761 1.818 42.208 17.983 78.492 48.125 108.325l29.816 29.978 36.021 36.566c22.633 22.85 51.254 22.291 69.594 1.452l2.332-2.833 0.967-1.351 70.423 71.2zM775.927 484.022c12.652 0.337 21.768-6.209 22.721-17.839 0.806-10.124-5.214-17.981-15.049-20.588l-2.775-0.579-1.648-0.191-57.643-4.896c-12.996-1.1-23.193 6.063-23.847 18.339-0.548 10.304 5.642 17.61 15.849 20.062l2.881 0.547 1.73 0.193 57.779 4.952zM795.703 577.002c4.123-10.106-0.054-19.942-9.546-25.114l-2.482-1.193-55.551-23.503c-12.109-5.096-23.911-1.537-28.305 10.118-3.922 10.383 0.608 19.656 10.596 24.863l2.609 1.215 55.635 23.582c11.904 4.283 22.635 0.846 27.044-9.967zM718.753 707.222c8.725 7.864 18.935 9.286 26.889 2.904l1.939-1.759 1.747-1.996c5.767-7.46 5.175-16.992-0.929-24.672l-1.996-2.244-48.723-49.551c-9.183-9.338-21.602-10.533-29.99-1.521-7.523 8.082-6.851 18.319 0.351 27.003l1.935 2.137 48.777 49.7zM602.463 771.52c5.536 11.526 15.546 16.677 26.272 12.059 10.826-4.643 14.425-15.947 9.728-27.25l-4.114-10.055-11.189-28.217-4.073-9.949c-5.145-12.147-15.916-17.954-27.162-12.758-10.074 4.622-13.273 14.376-9.826 25.152l1 2.713 3.803 9.314 11.669 29.502 3.892 9.489zM513.76 806.4l2.633-0.222c4.426-0.675 8.511-2.884 11.525-6.286 3.599-4.062 5.343-9.454 4.837-14.63l-1.767-23.219-2.070-24.523c-0.372-4.225-0.758-8.526-1.158-12.914-0.501-5.201-3.062-9.984-7.113-13.261-4.070-3.293-9.295-4.783-14.483-4.121-9.396 1.201-16.452 8.926-17.109 18.376l-0.017 2.616 4.941 59.622c0.868 9.916 7.945 17.454 17.252 18.449l2.528 0.112z" />
<glyph unicode="&#xe932;" glyph-name="like" horiz-adv-x="998" d="M464.039 663.355l3.114 0.869 2.598 0.636 3.269 0.713 2.522 0.49 4.251 0.716c0.502 0.076 1.013 0.152 1.533 0.225l3.227 0.417 3.426 0.359 3.607 0.284c0.615 0.040 1.237 0.077 1.866 0.109l3.845 0.141c17.621 0.386 39.376-2.765 57.891-16.312 23.174-17.089 35.205-45.325 35.934-83.912l0.035-3.767v-84.71h119.957c20.429 0 40.509-7.51 56.399-21.134 22.858-19.477 34.387-49.958 30.448-80.135l-0.415-2.828-32.303-200.858c-3.841-29.692-17.286-52.922-38.938-67.593-16.046-10.755-36.793-16.808-60.311-17.415l-3.945-0.051h-250.216c-23.572 0-45.399 9.606-61.463 25.326-6.81-5.839-15.727-9.569-25.355-10.072l-2.234-0.058h-79.971c-23.105 0-42.078 18.353-43.086 41.225l-0.042 1.916v261.29c0 23.112 18.348 42.090 41.213 43.099l1.916 0.042h79.622c12.161 0 23.085-4.951 30.879-12.96l1.424-1.537 2.095 0.524 2.997 0.968 3.176 1.13 2.61 0.989 2.962 1.182 3.277 1.38 3.555 1.581 3.797 1.786c0.651 0.315 1.311 0.639 1.978 0.972l4.092 2.102c6.26 3.314 13.028 7.356 19.748 12.188 28.557 20.452 43.378 45.811 44.305 75.603l0.046 2.994v102.175c0 9.082 5.937 17.117 14.667 19.911zM530.391 618.293c-11.011 8.055-25.734 8.993-37.035 8.056l-2.077-0.196v-84.884c0-45.062-21.826-84.36-62.86-113.528-3.783-2.709-7.569-5.209-11.298-7.51l-4.443-2.665c-1.469-0.857-2.925-1.682-4.365-2.477l-4.263-2.293-4.138-2.113-3.99-1.937-3.819-1.764-3.625-1.595-3.408-1.43-3.167-1.269-4.249-1.61-5.551-1.932-4.098-1.27-0.873-0.175-1.222-0.349v-224.611l0.349-1.578 0.175-0.867c3.386-21.51 21.878-37.928 43.375-38.903l2.024-0.046h250.216c33.225 0 48.247 12.988 55.256 26.027l1.156 2.299c0.179 0.382 0.353 0.764 0.519 1.145l0.93 2.271 0.795 2.232 0.672 2.178 0.561 2.108 0.463 2.022 0.539 2.838 0.492 3.336 0.254 2.097c0.116 0.233 0.155 0.466 0.168 0.647l0.006 0.226 32.303 201.207c2.619 16.942-3.318 34.058-15.889 44.887-7.783 6.487-17.221 10.414-26.918 10.942l-2.242 0.061h-140.91c-11.044 0-20.164 8.662-20.905 19.53l-0.049 1.429v105.669c0 26.373-6.286 44.538-18.858 53.795zM322.78 410.448h-79.971c-0.559 0-1.006-0.335-1.162-0.827l-0.060-0.395v-261.29c0-0.559 0.335-1.006 0.827-1.163l0.395-0.060h79.971c0.559 0 1.006 0.335 1.162 0.827l0.060 0.395v261.29c0 0.559-0.335 1.006-0.827 1.163l-0.395 0.060zM739.411 612.421c14.493 0 26.24-11.753 26.24-26.248 0-13.977-10.924-25.405-24.698-26.203l-1.542-0.045h-55.98c-14.491 0-26.24 11.753-26.24 26.248 0 13.977 10.924 25.405 24.698 26.203l1.542 0.045h55.98zM347.552 612.421c14.491 0 26.24-11.753 26.24-26.248 0-13.977-10.925-25.405-24.699-26.203l-1.542-0.045h-55.98c-14.491 0-26.24 11.753-26.24 26.248 0 13.977 10.924 25.405 24.698 26.203l1.542 0.045h55.98zM390.412 802.877c12.084 6.982 27.414 3.251 35.003-8.245l0.841-1.361 27.99-48.494c7.246-12.554 2.946-28.607-9.604-35.854-4.131-2.388-8.645-3.521-13.096-3.521-8.501 0-16.785 4.136-21.792 11.592l-0.957 1.535-27.99 48.494c-7.246 12.553-2.947 28.606 9.604 35.854zM604.728 793.271c7.243 12.553 23.293 16.858 35.844 9.606 12.086-6.98 16.52-22.124 10.361-34.445l-0.758-1.409-27.99-48.494c-4.858-8.42-13.679-13.127-22.748-13.127-4.453 0-8.964 1.134-13.096 3.521-12.086 6.978-16.522 22.124-10.362 34.445l0.758 1.409 27.99 48.494z" />
<glyph unicode="&#xe933;" glyph-name="no_view" horiz-adv-x="998" d="M268.906 192.338c6.709-1.184 12.452 0.787 17.788 5.215l2.403 2.186 447.121 461.383c11.858 12.238 13.534 25.918 3.044 36.321-10.28 10.184-23.031 8.215-34.761-3.875l-39.13-40.282-39.301-40.85-0.393 0.241c-137.358 55.033-287.147 18.292-385.325-93.907l-5.502-6.431c-9.499-11.684-18.329-23.931-26.394-36.599-11.767-17.986-11.642-37.497 0.013-55.892 28.456-45.176 66.484-83.033 111.142-110.734l7.816-4.693-69.923-72.102c-5.336-5.507-8.025-11.826-7.521-18.595l0.413-2.927 0.813-2.976c2.538-8.331 9.555-14.399 17.697-15.48zM363.078 338.814l-8.064 4.437c-43.067 24.567-79.721 59.599-106.756 102.144-1.552 2.408-1.524 3.716 0.183 6.354 25.487 39.412 56.879 70.99 94.531 94.527 63.019 39.404 130.74 53.524 203.017 42.521l9.453-1.578 4.101-0.77c4.024-0.783 8.095-1.712 12.688-2.885l10.018-2.7 11.313-3.223-41.543-42.994-4.077 2.351c-37.341 20.234-79.489 14.48-109.022-10.892l-3.625-3.273c-15.744-14.612-26.37-34.15-30.232-55.561-4.29-23.195-0.891-45.266 9.804-66.191l3.099-5.729-54.887-56.538zM500.853 261.063c121.247 1.707 217.301 55.028 287.103 158.896 14.358 21.362 14.285 40.169 0.186 62.352-20.493 32.225-46.069 60.632-75.829 84.161-4.804 3.567-10.448 5.732-16.364 6.266-9.316 0.813-17.534-6.166-20.5-15.549-2.591-8.086-0.6-16.904 4.871-22.858l2.213-2.091 16.362-13.88c0.541-0.48 1.072-0.957 1.618-1.453 18.933-17.123 35.801-37.392 51.295-61.166 2.361-3.622 2.377-5.418 0.088-8.886-49.443-74.666-115.692-119.82-199.457-135.343l-12.486-2.076-8.675-1.123-7.162-0.621-5.309-0.368-8.43-0.391-4.977-0.118-7.293-0.021-7.986 0.185-4.222 0.188-6.585 0.421-4.54 0.383-7.003 0.747-8.151 1.119-7.074 1.177c-6.555 0.639-10.41 0.631-14.744-0.61-9.367-2.693-15.515-12.925-14.797-22.935 0.759-10.216 7.265-18.53 16.695-20.768l2.642-0.457 5.696-0.659 17.304-2.137c12.568-1.502 21.998-2.289 31.021-2.391l4.491 0.006z" />
<glyph unicode="&#xe934;" glyph-name="sign_up" horiz-adv-x="998" d="M614.633 755.2c52.261 0 94.876-42.209 95.723-94.415l0.013-1.585v-147.6c0-13.255-10.715-24-23.934-24-13.081 0-23.711 10.522-23.931 23.587l-0.003 0.413v147.6c0 26.203-21.046 47.569-47.078 47.994l-0.79 0.006h-294.256c-26.131 0-47.438-21.104-47.862-47.207l-0.006-0.793v-422.4c0-26.203 21.046-47.569 47.078-47.994l0.79-0.006h80.046c13.219 0 23.934-10.745 23.934-24 0-13.117-10.493-23.776-23.522-24h-80.459c-52.261 0-94.876 42.209-95.723 94.415l-0.013 1.585v422.4c0 52.405 42.093 95.138 94.156 95.987l1.581 0.013h294.256zM651.237 407.733c27.978 28.055 73.529 28.054 101.525-0.019 27.717-27.794 27.994-72.84 0.833-100.977l-0.831-0.847-131.126-131.24c-2.787-2.79-6.216-4.845-9.979-5.986l-0.54-0.157-96.604-26.833c-2.11-0.587-4.259-0.872-6.388-0.872-6.363 0-12.567 2.548-17.133 7.241-5.985 6.151-8.225 15.030-5.903 23.278l0.134 0.458 28.617 94.47c1.089 3.593 3.001 6.877 5.582 9.59l0.413 0.424 131.402 131.472zM646.56 335.243l-88.663-88.71-14.223-46.955 48.601 13.5 88.14 88.217-33.855 33.948zM718.916 373.77c-9.225 9.25-24.167 9.356-33.523 0.319l-0.324-0.319-4.622-4.625 33.849-33.942 4.637 4.64c9.315 9.343 9.315 24.569-0.017 33.926zM493.898 419.2c13.219 0 23.934-10.745 23.934-24 0-13.117-10.493-23.776-23.522-23.997l-0.412-0.003h-149.721c-13.219 0-23.934 10.745-23.934 24 0 13.117 10.493 23.776 23.522 23.997l0.412 0.003h149.721zM590.699 515.2c13.219 0 23.934-10.745 23.934-24 0-13.117-10.493-23.776-23.522-23.997l-0.412-0.003h-246.521c-13.219 0-23.934 10.745-23.934 24 0 13.117 10.493 23.776 23.522 23.997l0.412 0.003h246.521zM590.699 611.2c13.219 0 23.934-10.745 23.934-24 0-13.117-10.493-23.776-23.522-23.997l-0.412-0.003h-246.521c-13.219 0-23.934 10.745-23.934 24 0 13.117 10.493 23.776 23.522 23.997l0.412 0.003h246.521z" />
</font>
</defs>
</svg>
